<?xml version="1.0" encoding="UTF-8" standalone="no"?>
<!DOCTYPE svg PUBLIC "-//W3C//DTD SVG 1.1//EN" "http://www.w3.org/Graphics/SVG/1.1/DTD/svg11.dtd">
<svg width="100%" height="100%" viewBox="0 0 750 1200" version="1.1" xmlns="http://www.w3.org/2000/svg" xmlns:xlink="http://www.w3.org/1999/xlink" xml:space="preserve" xmlns:serif="http://www.serif.com/" style="fill-rule:evenodd;clip-rule:evenodd;stroke-miterlimit:10;">
    <rect id="Page-2" serif:id="Page 2" x="0" y="0" width="750" height="1200" style="fill:none;"/>
    <g>
        <g transform="matrix(1,0,0,1,462.873,374.657)">
            <path d="M0,33.737C44.04,37.243 44.51,17.148 34.461,16.913C24.411,16.678 -4.221,6.788 -19.596,-3.506L0,33.737Z" style="fill:rgb(255,135,23);fill-rule:nonzero;stroke:black;stroke-width:9.79px;"/>
        </g>
        <g transform="matrix(1,0,0,1,146.392,309.428)">
            <path d="M0,152.458C0,152.458 10.421,73.729 73.322,34.485C107.786,17.975 153.318,0 210.012,12.3C267.943,30.374 297.847,38.113 311.634,80.287C309.851,105.917 312.26,110.543 300.899,124.657C294.489,130.05 283.976,134.646 283.976,134.646" style="fill:rgb(255,210,40);fill-rule:nonzero;"/>
        </g>
        <g transform="matrix(1,0,0,1,269.35,508.017)">
            <path d="M0,232.849C-82.914,257.396 -171.227,225.778 -223.384,158.528C-268.277,100.644 -264.036,8.724 -234.056,-6.923C-200.298,-24.547 -178.619,18.145 -201.982,58.851C-237.771,121.211 -147.211,220.327 -40.292,211.273L0,232.849Z" style="fill:white;fill-rule:nonzero;stroke:black;stroke-width:9.79px;"/>
        </g>
        <g transform="matrix(1,0,0,1,146.392,812.346)">
            <path d="M0,-350.46C-9.022,-299.984 -24.866,-227.205 -14.743,-162.442C2.878,-16.106 91.872,17.812 134.9,-18.109C186.618,-8.44 239.932,-14.417 274.908,-29.193C286.857,-34.241 297.449,-42.714 303.54,-49.957C340.634,-94.064 335.182,-155.063 303.882,-217.041C282.485,-259.406 282.934,-302.952 283.976,-368.272" style="fill:rgb(255,210,40);fill-rule:nonzero;stroke:black;stroke-width:9.79px;"/>
        </g>
        <g transform="matrix(1,0,0,1,264.239,604.7)">
            <path d="M0,-116.007C7.055,-81.491 69.047,-49.469 83.059,-35.053C97.07,-20.636 87.92,0 62.866,-2.109C31.904,-4.715 -15.1,-28.907 -40.691,-58.932" style="fill:rgb(255,210,40);fill-rule:nonzero;stroke:black;stroke-width:9.79px;"/>
        </g>
        <g transform="matrix(-0.990189,0.139732,0.139732,0.990189,317.804,437.595)">
            <path d="M-17.415,-118.203C-17.415,-118.203 -47.285,-32.366 -39.566,-1.356C-39.566,-1.356 -26.018,4.207 -17.415,1.555L33.753,-118.355C33.753,-118.355 -3.377,-120.771 -17.415,-118.203" style="fill:rgb(2,121,196);fill-rule:nonzero;"/>
        </g>
        <g transform="matrix(-0.989221,0.146427,0.146427,0.989221,424.64,430.256)">
            <path d="M7.208,-97.045C7.208,-97.045 -27.937,-8.82 -13.246,10.422C-13.246,10.422 -3.037,13.763 7.208,10.736C7.208,10.736 40.45,-100.111 37.257,-113.218C37.257,-113.218 24.028,-106.955 7.208,-97.045" style="fill:rgb(2,121,196);fill-rule:nonzero;"/>
        </g>
        <g transform="matrix(1,0,0,1,679.236,229.721)">
            <path d="M0,158.706L-27.205,148.488L51.727,-41.848C52.38,-43.442 52.461,-45.213 51.957,-46.858L27.004,-127.025C26.245,-129.134 24.601,-130.8 22.504,-131.588C20.407,-132.376 18.069,-132.205 16.112,-131.116L-55.446,-87.197C-56.911,-86.292 -58.016,-84.906 -58.571,-83.274L-124.459,111.96L-151.66,101.744C-155.467,100.314 -159.713,102.242 -161.143,106.049L-171.5,133.623C-172.931,137.434 -171.002,141.676 -167.195,143.106L-127.214,158.123C-126.36,162.641 -124.813,167.001 -122.628,171.049L-157.777,264.634C-159.208,268.445 -157.279,272.687 -153.473,274.117L-112.111,289.652C-108.304,291.082 -104.06,289.158 -102.628,285.348L-67.476,191.755C-63.169,190.146 -59.136,187.886 -55.521,185.05L-15.535,200.067C-11.729,201.498 -7.483,199.573 -6.053,195.763L4.304,168.188C5.734,164.382 3.807,160.136 0,158.706Z" style="fill:white;fill-rule:nonzero;stroke:black;stroke-width:9.79px;"/>
        </g>
        <g transform="matrix(0.323146,0.946349,0.946349,-0.323146,788.655,224.832)">
            <path d="M-132.552,-61.319L-65.764,-61.319L85.918,-184.787L65.63,-201.269L-132.552,-61.319Z" style="fill:rgb(226,226,226);fill-rule:nonzero;"/>
        </g>
        <g transform="matrix(1,0,0,1,158.03,484.101)">
            <path d="M0,257.06C-0.291,256.621 -0.587,256.184 -0.854,255.73C-2.254,253.351 -3.519,250.668 -4.711,247.949C-9.282,240.24 -13.171,232.282 -15.185,223.098C-15.493,221.69 -15.743,220.287 -15.937,218.891C-78.077,189.274 -115.966,126.856 -90.663,82.767C-67.301,42.061 -88.979,-0.631 -122.736,16.992C-152.717,32.641 -156.958,124.56 -112.064,182.444C-83.32,219.506 -43.585,245.709 0.166,257.691C0.115,257.479 0.048,257.273 0,257.06Z" style="fill:rgb(255,135,23);fill-rule:nonzero;stroke:black;stroke-width:9.79px;"/>
        </g>
        <g transform="matrix(0.194182,0.980966,0.980966,-0.194182,413.426,370.187)">
            <path d="M15.997,-13.14C25.004,-13.14 32.303,-5.842 32.303,3.166C32.303,12.169 25.004,19.473 15.997,19.473C6.989,19.473 -0.311,12.17 -0.31,3.166C-0.311,-5.842 6.988,-13.14 15.997,-13.14" style="fill:white;fill-rule:nonzero;"/>
        </g>
        <g transform="matrix(0.194182,0.980966,0.980966,-0.194182,413.426,370.187)">
            <circle cx="15.996" cy="3.166" r="16.307" style="fill:none;stroke:black;stroke-width:9.79px;"/>
        </g>
        <g transform="matrix(0.194182,0.980966,0.980966,-0.194182,290.377,365.467)">
            <path d="M15.997,-13.14C25.004,-13.14 32.303,-5.841 32.303,3.166C32.304,12.175 25.005,19.473 15.997,19.473C6.989,19.473 -0.31,12.176 -0.31,3.166C-0.31,-5.841 6.989,-13.14 15.997,-13.14" style="fill:white;fill-rule:nonzero;"/>
        </g>
        <g transform="matrix(0.194182,0.980966,0.980966,-0.194182,290.377,365.467)">
            <circle cx="15.997" cy="3.166" r="16.307" style="fill:none;stroke:black;stroke-width:9.79px;"/>
        </g>
        <g transform="matrix(1,0,0,1,144.367,308.723)">
            <path d="M0,163.831C10.84,89.444 52.861,32.219 123.027,16.11C193.192,0 255.892,12.938 298.399,54.268C328.963,83.983 310.394,123.319 296.458,129.297C272.688,139.493 245.599,129.014 229.599,109.951C205.177,132.567 170.264,136.621 143.838,121.427" style="fill:none;fill-rule:nonzero;stroke:black;stroke-width:9.79px;"/>
        </g>
        <g transform="matrix(-0.636025,-0.771668,-0.771668,0.636025,53.6781,377.716)">
            <path d="M-81.682,-109.203C-89.572,-127.204 -95.271,-106.838 -96.968,-98.494C-98.666,-90.152 -113.878,-28.716 -81.682,3.483C-49.488,35.678 -11.608,30.145 -13.824,21.426C-16.037,12.715 -65.436,-72.132 -81.682,-109.203" style="fill:rgb(255,135,23);fill-rule:nonzero;"/>
        </g>
        <g transform="matrix(-0.636025,-0.771668,-0.771668,0.636025,53.6781,377.716)">
            <path d="M-81.682,-109.203C-89.572,-127.204 -95.271,-106.838 -96.968,-98.494C-98.666,-90.152 -113.878,-28.716 -81.682,3.483C-49.488,35.678 -11.608,30.145 -13.824,21.426C-16.037,12.715 -65.436,-72.132 -81.682,-109.203Z" style="fill:none;fill-rule:nonzero;stroke:black;stroke-width:9.79px;"/>
        </g>
        <g transform="matrix(-0.595379,-0.803445,-0.803445,0.595379,350.053,390.681)">
            <path d="M-17.569,-30.252C-30.067,-36.836 -38.083,-29.272 -34.101,-17.179C-30.117,-5.081 -30.453,-3.832 -17.569,2.959C-3.597,10.319 11.358,4.987 3.843,-7.183C-3.672,-19.354 -10.581,-26.567 -17.569,-30.252" style="fill:rgb(255,135,23);fill-rule:nonzero;"/>
        </g>
        <g transform="matrix(-0.595379,-0.803445,-0.803445,0.595379,350.053,390.681)">
            <path d="M-17.569,-30.252C-30.067,-36.836 -38.083,-29.272 -34.101,-17.179C-30.117,-5.081 -30.453,-3.832 -17.569,2.959C-3.597,10.319 11.358,4.987 3.843,-7.183C-3.672,-19.354 -10.581,-26.567 -17.569,-30.252Z" style="fill:none;fill-rule:nonzero;stroke:black;stroke-width:9.79px;"/>
        </g>
        <g transform="matrix(1,0,0,1,364.429,534.797)">
            <path d="M0,478.266L-23.24,478.266L-23.24,502.73L-56.267,502.73L-56.267,535.755L-22.018,535.755L-22.018,567.558L-88.069,567.558L-88.069,442.793L-112.533,442.793L-112.533,377.964L-178.585,377.964L-178.585,351.055L-210.388,351.055L-210.388,318.029L-243.413,318.029L-243.413,139.444L-211.61,139.444L-211.61,203.049L-178.585,203.049L-178.585,229.959L-150.451,229.959L-150.451,269.101L-77.061,269.101L-77.061,239.133L-51.374,239.133L-51.374,199.38L-6.116,199.38L-6.116,171.246L35.473,171.246L35.473,142.655L64.829,143.114L64.829,-58.712L97.854,-58.712L97.854,-89.292L336.376,-89.292L336.376,-56.266L373.071,-56.266L373.071,73.392L218.95,73.392L218.95,113.757L304.573,113.757L304.573,134.551L187.147,134.551L187.147,203.049L248.307,203.049L248.307,260.539L218.95,260.539L218.95,232.406L189.594,232.406L189.594,332.706L155.345,332.706L155.345,374.295L123.542,374.295L123.542,409.767L91.739,409.767L91.739,535.755L130.881,535.755L130.881,567.558L64.829,567.558L64.829,478.266L31.803,478.266L31.803,442.793L0,442.793L0,478.266Z" style="fill:rgb(82,82,82);fill-rule:nonzero;stroke:black;stroke-width:9.79px;"/>
        </g>
        <g transform="matrix(-1,0,0,1,1003.48,-209.969)">
            <rect x="482.488" y="685.73" width="38.509" height="38.509" style="fill:white;stroke:black;stroke-width:9.79px;"/>
        </g>
        <g transform="matrix(1,0,0,1,247.132,891.747)">
            <path d="M0,-176.204C24.37,-170.764 44.17,-151.316 53.968,-128.349C62.913,-107.379 107.247,-48.84 74.633,-22.752C46.188,0 -9.846,-80.182 -19.973,-91.247" style="fill:rgb(255,210,40);fill-rule:nonzero;stroke:black;stroke-width:9.79px;"/>
        </g>
        <g transform="matrix(1,0,0,1,528.032,773.024)">
            <path d="M0,-146.137C-0.357,-154.126 -0.351,-161.751 -0.345,-169.377C-0.34,-175.55 -5.058,-180.274 -11.23,-180.279C-56.62,-180.315 -91.107,-193.414 -119.771,-221.397C-124.126,-225.395 -130.662,-225.4 -135.023,-221.409C-163.731,-193.471 -198.238,-180.425 -243.629,-180.461C-249.802,-180.466 -254.526,-175.749 -254.531,-169.575C-254.537,-161.95 -254.543,-154.325 -254.912,-146.336C-256.425,-70.082 -258.685,34.496 -131.263,78.533L-127.633,79.263L-124.001,78.539C3.127,34.701 1.393,-69.516 0,-146.137" style="fill:rgb(226,226,226);fill-rule:nonzero;"/>
        </g>
        <g transform="matrix(1,0,0,1,401.419,852.071)">
            <path d="M0,-303.413C-2.979,-303.625 -6.021,-302.646 -8.41,-300.46C-37.118,-272.522 -71.625,-259.476 -117.016,-259.512C-123.188,-259.517 -127.913,-254.8 -127.918,-248.627C-127.924,-241.001 -127.93,-233.375 -128.299,-225.387C-129.812,-149.133 -132.072,-44.555 -4.65,-0.517L-1.02,0.212L0,0.009L0,-303.413Z" style="fill:rgb(187,187,188);fill-rule:nonzero;"/>
        </g>
        <g transform="matrix(-0.999977,0.00679932,0.00679932,0.999977,401.579,769.898)">
            <path d="M0.519,-150.896C42.589,-150.896 76.691,-117.115 76.692,-75.447C76.692,-33.774 42.589,0.002 0.519,0.002C-41.557,0.002 -75.659,-33.777 -75.659,-75.447C-75.659,-117.115 -41.556,-150.896 0.519,-150.896" style="fill:rgb(3,121,196);"/>
        </g>
        <g transform="matrix(1,0,0,1,528.032,773.024)">
            <path d="M0,-146.137C-0.357,-154.126 -0.351,-161.751 -0.345,-169.377C-0.34,-175.55 -5.058,-180.274 -11.23,-180.279C-56.62,-180.315 -91.107,-193.414 -119.771,-221.397C-124.126,-225.395 -130.662,-225.4 -135.023,-221.409C-163.731,-193.471 -198.238,-180.425 -243.629,-180.461C-249.802,-180.466 -254.526,-175.749 -254.531,-169.575C-254.537,-161.95 -254.543,-154.325 -254.912,-146.336C-256.425,-70.082 -258.685,34.496 -131.263,78.533L-127.633,79.263L-124.001,78.539C3.127,34.701 1.393,-69.516 0,-146.137Z" style="fill:none;fill-rule:nonzero;stroke:black;stroke-width:9.79px;"/>
        </g>
    </g>
    <g transform="matrix(0.740745,0,0,0.740745,455.775,724.652)">
        <g id="Fixed">
            <path d="M0,-81.527C6.632,-69.426 10.406,-55.539 10.406,-40.767C10.406,-9.422 -6.581,17.944 -31.84,32.671L-5.89,-42.359C-1.043,-54.48 0.571,-64.172 0.571,-72.79C0.571,-75.918 0.365,-78.821 0,-81.527M-62.846,-80.602C-57.731,-80.871 -53.122,-81.409 -53.122,-81.409C-48.544,-81.951 -49.084,-88.679 -53.664,-88.411C-53.664,-88.411 -67.426,-87.331 -76.31,-87.331C-84.658,-87.331 -98.686,-88.411 -98.686,-88.411C-103.268,-88.679 -103.805,-81.68 -99.225,-81.409C-99.225,-81.409 -94.891,-80.871 -90.313,-80.602L-77.077,-44.333L-95.673,11.43L-126.611,-80.602C-121.492,-80.871 -116.888,-81.409 -116.888,-81.409C-112.313,-81.951 -112.853,-88.679 -117.431,-88.411C-117.431,-88.411 -131.19,-87.331 -140.075,-87.331C-141.669,-87.331 -143.548,-87.37 -145.543,-87.434C-130.351,-110.498 -104.239,-125.729 -74.555,-125.729C-52.437,-125.729 -32.297,-117.272 -17.182,-103.422C-17.548,-103.444 -17.905,-103.49 -18.282,-103.49C-26.628,-103.49 -32.55,-96.22 -32.55,-88.411C-32.55,-81.409 -28.51,-75.485 -24.204,-68.484C-20.973,-62.825 -17.199,-55.556 -17.199,-45.052C-17.199,-37.781 -19.996,-29.342 -23.664,-17.586L-32.141,10.729L-62.846,-80.602ZM-74.555,44.202C-82.895,44.202 -90.944,42.979 -98.558,40.74L-73.063,-33.335L-46.949,38.214C-46.777,38.634 -46.566,39.021 -46.341,39.385C-55.172,42.494 -64.661,44.202 -74.555,44.202M-159.517,-40.767C-159.517,-53.085 -156.875,-64.778 -152.16,-75.344L-111.631,35.698C-139.976,21.928 -159.517,-7.137 -159.517,-40.767M-74.555,-135.264C-126.662,-135.264 -169.054,-92.873 -169.054,-40.767C-169.054,11.341 -126.662,53.737 -74.555,53.737C-22.449,53.737 19.945,11.341 19.945,-40.767C19.945,-92.873 -22.449,-135.264 -74.555,-135.264" style="fill:white;fill-rule:nonzero;"/>
        </g>
    </g>
</svg>
